<svg viewBox="1663 390.0668 380 191.8663" width="5000" height="2524.556578947368" xmlns="http://www.w3.org/2000/svg" xmlns:xlink="http://www.w3.org/1999/xlink" preserveAspectRatio="none"><defs></defs><style>.aU0RBAjHQvcolors-0 {fill:#E5E5E5;fill-opacity:1;}.background {fill:#141414;fill-opacity:1;}.companyName {fill:#E9E41D;fill-opacity:1;}.icon3-str {stroke:#E9E41D;stroke-opacity:1;}.shapeStroke-str {stroke:#E5E5E5;stroke-opacity:1;}.text {fill:#E5E5E5;fill-opacity:1;}</style><g opacity="1" transform="rotate(0 1663 520.2005)">
<svg width="380" height="36.6537" x="1663" y="520.2005" version="1.1" preserveAspectRatio="none" viewBox="0 0 380 36.6537">
  <rect x="0" y="0" width="380" height="36.6537" class="companyName shapeStroke-str" style="stroke-width:0;" rx="0%" ry="0%" />
</svg>
</g><g opacity="1" transform="rotate(0 1685.2961 566.4999)">
<svg width="335.4077" height="15.4332" x="1685.2961" y="566.4999" version="1.1" preserveAspectRatio="none" viewBox="4.56 -29.68 818.0400000000001 37.64">
  <g transform="matrix(1 0 0 1 0 0)" class="text"><path id="id-6izo4zJp39" d="M15.04-28Q20.40-28 23.44-25.44Q26.48-22.88 26.48-18.40L26.48-18.40Q26.48-13.92 23.44-11.38Q20.40-8.84 15.04-8.84L15.04-8.84L7.52-8.84L7.52 0L4.56 0L4.56-28L15.04-28ZM14.96-11.44Q19.12-11.44 21.32-13.26Q23.52-15.08 23.52-18.40L23.52-18.40Q23.52-21.80 21.32-23.62Q19.12-25.44 14.96-25.44L14.96-25.44L7.52-25.44L7.52-11.44L14.96-11.44Z M32.68 0L32.68-29.68L35.52-29.68L35.52 0L32.68 0Z M50.80-21.20Q54.92-21.20 57.12-19.14Q59.32-17.08 59.32-13.04L59.32-13.04L59.32 0L56.60 0L56.60-3.28Q55.64-1.64 53.78-0.72Q51.92 0.20 49.36 0.20L49.36 0.20Q45.84 0.20 43.76-1.48Q41.68-3.16 41.68-5.92L41.68-5.92Q41.68-8.60 43.62-10.24Q45.56-11.88 49.80-11.88L49.80-11.88L56.48-11.88L56.48-13.16Q56.48-15.88 54.96-17.30Q53.44-18.72 50.52-18.72L50.52-18.72Q48.52-18.72 46.68-18.06Q44.84-17.40 43.52-16.24L43.52-16.24L42.24-18.36Q43.84-19.72 46.08-20.46Q48.32-21.20 50.80-21.20L50.80-21.20ZM49.80-2.04Q52.20-2.04 53.92-3.14Q55.64-4.24 56.48-6.32L56.48-6.32L56.48-9.76L49.88-9.76Q44.48-9.76 44.48-6L44.48-6Q44.48-4.16 45.88-3.10Q47.28-2.04 49.80-2.04L49.80-2.04Z M75.84 0.20Q72.72 0.20 70.26-1.16Q67.80-2.52 66.40-4.98Q65-7.44 65-10.52L65-10.52Q65-13.60 66.40-16.04Q67.80-18.48 70.26-19.84Q72.72-21.20 75.84-21.20L75.84-21.20Q78.56-21.20 80.70-20.14Q82.84-19.08 84.08-17.04L84.08-17.04L81.96-15.60Q80.92-17.16 79.32-17.94Q77.72-18.72 75.84-18.72L75.84-18.72Q73.56-18.72 71.74-17.70Q69.92-16.68 68.90-14.80Q67.88-12.92 67.88-10.52L67.88-10.52Q67.88-8.08 68.90-6.22Q69.92-4.36 71.74-3.34Q73.56-2.32 75.84-2.32L75.84-2.32Q77.72-2.32 79.32-3.08Q80.92-3.84 81.96-5.40L81.96-5.40L84.08-3.96Q82.84-1.92 80.68-0.86Q78.52 0.20 75.84 0.20L75.84 0.20Z M107.64-10.52L107.60-9.64L90-9.64Q90.24-6.36 92.52-4.34Q94.80-2.32 98.28-2.32L98.28-2.32Q100.24-2.32 101.88-3.02Q103.52-3.72 104.72-5.08L104.72-5.08L106.32-3.24Q104.92-1.56 102.82-0.68Q100.72 0.20 98.20 0.20L98.20 0.20Q94.96 0.20 92.46-1.18Q89.96-2.56 88.56-5Q87.16-7.44 87.16-10.52L87.16-10.52Q87.16-13.60 88.50-16.04Q89.84-18.48 92.18-19.84Q94.52-21.20 97.44-21.20L97.44-21.20Q100.36-21.20 102.68-19.84Q105-18.48 106.32-16.06Q107.64-13.64 107.64-10.52L107.64-10.52ZM97.44-18.76Q94.40-18.76 92.34-16.82Q90.28-14.88 90-11.76L90-11.76L104.92-11.76Q104.64-14.88 102.58-16.82Q100.52-18.76 97.44-18.76L97.44-18.76Z M152.20-21.04L154.80-21.04L146.84 0L144.16 0L137.52-17.24L130.88 0L128.20 0L120.28-21.04L123-21.04L129.60-3.16L136.36-21.04L138.80-21.04L145.52-3.16L152.20-21.04Z M169.80-21.20Q173.76-21.20 176.10-18.90Q178.44-16.60 178.44-12.20L178.44-12.20L178.44 0L175.60 0L175.60-11.92Q175.60-15.20 173.96-16.92Q172.32-18.64 169.28-18.64L169.28-18.64Q165.88-18.64 163.90-16.62Q161.92-14.60 161.92-11.04L161.92-11.04L161.92 0L159.08 0L159.08-29.68L161.92-29.68L161.92-17.36Q163.08-19.20 165.12-20.20Q167.16-21.20 169.80-21.20L169.80-21.20Z M204.60-10.52L204.56-9.64L186.96-9.64Q187.20-6.36 189.48-4.34Q191.76-2.32 195.24-2.32L195.24-2.32Q197.20-2.32 198.84-3.02Q200.48-3.72 201.68-5.08L201.68-5.08L203.28-3.24Q201.88-1.56 199.78-0.68Q197.68 0.20 195.16 0.20L195.16 0.20Q191.92 0.20 189.42-1.18Q186.92-2.56 185.52-5Q184.12-7.44 184.12-10.52L184.12-10.52Q184.12-13.60 185.46-16.04Q186.80-18.48 189.14-19.84Q191.48-21.20 194.40-21.20L194.40-21.20Q197.32-21.20 199.64-19.84Q201.96-18.48 203.28-16.06Q204.60-13.64 204.60-10.52L204.60-10.52ZM194.40-18.76Q191.36-18.76 189.30-16.82Q187.24-14.88 186.96-11.76L186.96-11.76L201.88-11.76Q201.60-14.88 199.54-16.82Q197.48-18.76 194.40-18.76L194.40-18.76Z M213.12-16.92Q214.12-19.04 216.10-20.12Q218.08-21.20 221.00-21.20L221.00-21.20L221.00-18.44L220.32-18.48Q217.00-18.48 215.12-16.44Q213.24-14.40 213.24-10.72L213.24-10.72L213.24 0L210.40 0L210.40-21.04L213.12-21.04L213.12-16.92Z M244.28-10.52L244.24-9.64L226.64-9.64Q226.88-6.36 229.16-4.34Q231.44-2.32 234.92-2.32L234.92-2.32Q236.88-2.32 238.52-3.02Q240.16-3.72 241.36-5.08L241.36-5.08L242.96-3.24Q241.56-1.56 239.46-0.68Q237.36 0.20 234.84 0.20L234.84 0.20Q231.60 0.20 229.10-1.18Q226.60-2.56 225.20-5Q223.80-7.44 223.80-10.52L223.80-10.52Q223.80-13.60 225.14-16.04Q226.48-18.48 228.82-19.84Q231.16-21.20 234.08-21.20L234.08-21.20Q237-21.20 239.32-19.84Q241.64-18.48 242.96-16.06Q244.28-13.64 244.28-10.52L244.28-10.52ZM234.08-18.76Q231.04-18.76 228.98-16.82Q226.92-14.88 226.64-11.76L226.64-11.76L241.56-11.76Q241.28-14.88 239.22-16.82Q237.16-18.76 234.08-18.76L234.08-18.76Z M275.44-21.04L278.24-21.04L267.72 2.52Q266.44 5.48 264.76 6.72Q263.08 7.96 260.72 7.96L260.72 7.96Q259.20 7.96 257.88 7.48Q256.56 7 255.60 6.04L255.60 6.04L256.92 3.92Q258.52 5.52 260.76 5.52L260.76 5.52Q262.20 5.52 263.22 4.72Q264.24 3.92 265.12 2L265.12 2L266.04-0.04L256.64-21.04L259.60-21.04L267.52-3.16L275.44-21.04Z M290.24 0.20Q287.20 0.20 284.76-1.18Q282.32-2.56 280.92-5Q279.52-7.44 279.52-10.52L279.52-10.52Q279.52-13.60 280.92-16.04Q282.32-18.48 284.76-19.84Q287.20-21.20 290.24-21.20L290.24-21.20Q293.28-21.20 295.72-19.84Q298.16-18.48 299.54-16.04Q300.92-13.60 300.92-10.52L300.92-10.52Q300.92-7.44 299.54-5Q298.16-2.56 295.72-1.18Q293.28 0.20 290.24 0.20L290.24 0.20ZM290.24-2.32Q292.48-2.32 294.26-3.34Q296.04-4.36 297.04-6.24Q298.04-8.12 298.04-10.52L298.04-10.52Q298.04-12.92 297.04-14.80Q296.04-16.68 294.26-17.70Q292.48-18.72 290.24-18.72L290.24-18.72Q288-18.72 286.22-17.70Q284.44-16.68 283.42-14.80Q282.40-12.92 282.40-10.52L282.40-10.52Q282.40-8.12 283.42-6.24Q284.44-4.36 286.22-3.34Q288-2.32 290.24-2.32L290.24-2.32Z M322.84-21.04L325.68-21.04L325.68 0L322.96 0L322.96-3.84Q321.84-1.92 319.88-0.86Q317.92 0.20 315.40 0.20L315.40 0.20Q311.28 0.20 308.90-2.10Q306.52-4.40 306.52-8.84L306.52-8.84L306.52-21.04L309.36-21.04L309.36-9.12Q309.36-5.80 311-4.08Q312.64-2.36 315.68-2.36L315.68-2.36Q319-2.36 320.92-4.38Q322.84-6.40 322.84-10L322.84-10L322.84-21.04Z M352.84 0.20Q349.72 0.20 347.26-1.16Q344.80-2.52 343.40-4.98Q342-7.44 342-10.52L342-10.52Q342-13.60 343.40-16.04Q344.80-18.48 347.26-19.84Q349.72-21.20 352.84-21.20L352.84-21.20Q355.56-21.20 357.70-20.14Q359.84-19.08 361.08-17.04L361.08-17.04L358.96-15.60Q357.92-17.16 356.32-17.94Q354.72-18.72 352.84-18.72L352.84-18.72Q350.56-18.72 348.74-17.70Q346.92-16.68 345.90-14.80Q344.88-12.92 344.88-10.52L344.88-10.52Q344.88-8.08 345.90-6.22Q346.92-4.36 348.74-3.34Q350.56-2.32 352.84-2.32L352.84-2.32Q354.72-2.32 356.32-3.08Q357.92-3.84 358.96-5.40L358.96-5.40L361.08-3.96Q359.84-1.92 357.68-0.86Q355.52 0.20 352.84 0.20L352.84 0.20Z M374-21.20Q378.12-21.20 380.32-19.14Q382.52-17.08 382.52-13.04L382.52-13.04L382.52 0L379.80 0L379.80-3.28Q378.84-1.64 376.98-0.72Q375.12 0.20 372.56 0.20L372.56 0.20Q369.04 0.20 366.96-1.48Q364.88-3.16 364.88-5.92L364.88-5.92Q364.88-8.60 366.82-10.24Q368.76-11.88 373-11.88L373-11.88L379.68-11.88L379.68-13.16Q379.68-15.88 378.16-17.30Q376.64-18.72 373.72-18.72L373.72-18.72Q371.72-18.72 369.88-18.06Q368.04-17.40 366.72-16.24L366.72-16.24L365.44-18.36Q367.04-19.72 369.28-20.46Q371.52-21.20 374-21.20L374-21.20ZM373-2.04Q375.40-2.04 377.12-3.14Q378.84-4.24 379.68-6.32L379.68-6.32L379.68-9.76L373.08-9.76Q367.68-9.76 367.68-6L367.68-6Q367.68-4.16 369.08-3.10Q370.48-2.04 373-2.04L373-2.04Z M400.96-21.20Q404.92-21.20 407.26-18.90Q409.60-16.60 409.60-12.20L409.60-12.20L409.60 0L406.76 0L406.76-11.92Q406.76-15.20 405.12-16.92Q403.48-18.64 400.44-18.64L400.44-18.64Q397.04-18.64 395.06-16.62Q393.08-14.60 393.08-11.04L393.08-11.04L393.08 0L390.24 0L390.24-21.04L392.96-21.04L392.96-17.16Q394.12-19.08 396.18-20.14Q398.24-21.20 400.96-21.20L400.96-21.20Z M438.64-21.20Q441.60-21.20 444.00-19.86Q446.40-18.52 447.76-16.08Q449.12-13.64 449.12-10.52L449.12-10.52Q449.12-7.40 447.76-4.96Q446.40-2.52 444.00-1.16Q441.60 0.20 438.64 0.20L438.64 0.20Q436.00 0.20 433.90-0.92Q431.80-2.04 430.52-4.16L430.52-4.16L430.52 0L427.80 0L427.80-29.68L430.64-29.68L430.64-17.04Q431.96-19.08 434.02-20.14Q436.08-21.20 438.64-21.20L438.64-21.20ZM438.44-2.32Q440.64-2.32 442.44-3.34Q444.24-4.36 445.26-6.24Q446.28-8.12 446.28-10.52L446.28-10.52Q446.28-12.92 445.26-14.80Q444.24-16.68 442.44-17.70Q440.64-18.72 438.44-18.72L438.44-18.72Q436.20-18.72 434.42-17.70Q432.64-16.68 431.62-14.80Q430.60-12.92 430.60-10.52L430.60-10.52Q430.60-8.12 431.62-6.24Q432.64-4.36 434.42-3.34Q436.20-2.32 438.44-2.32L438.44-2.32Z M473.28-10.52L473.24-9.64L455.64-9.64Q455.88-6.36 458.16-4.34Q460.44-2.32 463.92-2.32L463.92-2.32Q465.88-2.32 467.52-3.02Q469.16-3.72 470.36-5.08L470.36-5.08L471.96-3.24Q470.56-1.56 468.46-0.68Q466.36 0.20 463.84 0.20L463.84 0.20Q460.60 0.20 458.10-1.18Q455.60-2.56 454.20-5Q452.80-7.44 452.80-10.52L452.80-10.52Q452.80-13.60 454.14-16.04Q455.48-18.48 457.82-19.84Q460.16-21.20 463.08-21.20L463.08-21.20Q466.00-21.20 468.32-19.84Q470.64-18.48 471.96-16.06Q473.28-13.64 473.28-10.52L473.28-10.52ZM463.08-18.76Q460.04-18.76 457.98-16.82Q455.92-14.88 455.64-11.76L455.64-11.76L470.56-11.76Q470.28-14.88 468.22-16.82Q466.16-18.76 463.08-18.76L463.08-18.76Z M489.56 0L489.56-21.04L492.40-21.04L492.40 0L489.56 0ZM491.00-25.64Q490.12-25.64 489.52-26.24Q488.92-26.84 488.92-27.68L488.92-27.68Q488.92-28.48 489.52-29.08Q490.12-29.68 491.00-29.68L491.00-29.68Q491.88-29.68 492.48-29.10Q493.08-28.52 493.08-27.72L493.08-27.72Q493.08-26.84 492.48-26.24Q491.88-25.64 491.00-25.64L491.00-25.64Z M511.04-21.20Q515.00-21.20 517.34-18.90Q519.68-16.60 519.68-12.20L519.68-12.20L519.68 0L516.84 0L516.84-11.92Q516.84-15.20 515.20-16.92Q513.56-18.64 510.52-18.64L510.52-18.64Q507.12-18.64 505.14-16.62Q503.16-14.60 503.16-11.04L503.16-11.04L503.16 0L500.32 0L500.32-21.04L503.04-21.04L503.04-17.16Q504.20-19.08 506.26-20.14Q508.32-21.20 511.04-21.20L511.04-21.20Z M545.24-21.20Q549.36-21.20 551.56-19.14Q553.76-17.08 553.76-13.04L553.76-13.04L553.76 0L551.04 0L551.04-3.28Q550.08-1.64 548.22-0.72Q546.36 0.20 543.80 0.20L543.80 0.20Q540.28 0.20 538.20-1.48Q536.12-3.16 536.12-5.92L536.12-5.92Q536.12-8.60 538.06-10.24Q540.00-11.88 544.24-11.88L544.24-11.88L550.92-11.88L550.92-13.16Q550.92-15.88 549.40-17.30Q547.88-18.72 544.96-18.72L544.96-18.72Q542.96-18.72 541.12-18.06Q539.28-17.40 537.96-16.24L537.96-16.24L536.68-18.36Q538.28-19.72 540.52-20.46Q542.76-21.20 545.24-21.20L545.24-21.20ZM544.24-2.04Q546.64-2.04 548.36-3.14Q550.08-4.24 550.92-6.32L550.92-6.32L550.92-9.76L544.32-9.76Q538.92-9.76 538.92-6L538.92-6Q538.92-4.16 540.32-3.10Q541.72-2.04 544.24-2.04L544.24-2.04Z M577.92-29.68L580.76-29.68L580.76 0L578.04 0L578.04-4.16Q576.76-2.04 574.66-0.92Q572.56 0.20 569.92 0.20L569.92 0.20Q566.96 0.20 564.56-1.16Q562.16-2.52 560.80-4.96Q559.44-7.40 559.44-10.52L559.44-10.52Q559.44-13.64 560.80-16.08Q562.16-18.52 564.56-19.86Q566.96-21.20 569.92-21.20L569.92-21.20Q572.48-21.20 574.54-20.14Q576.60-19.08 577.92-17.04L577.92-17.04L577.92-29.68ZM570.16-2.32Q572.36-2.32 574.14-3.34Q575.92-4.36 576.94-6.24Q577.96-8.12 577.96-10.52L577.96-10.52Q577.96-12.92 576.94-14.80Q575.92-16.68 574.14-17.70Q572.36-18.72 570.16-18.72L570.16-18.72Q567.92-18.72 566.14-17.70Q564.36-16.68 563.34-14.80Q562.32-12.92 562.32-10.52L562.32-10.52Q562.32-8.12 563.34-6.24Q564.36-4.36 566.14-3.34Q567.92-2.32 570.16-2.32L570.16-2.32Z M603.56-21.04L606.36-21.04L597.00 0L594.08 0L584.76-21.04L587.72-21.04L595.60-3.12L603.56-21.04Z M617.08-21.20Q621.20-21.20 623.40-19.14Q625.60-17.08 625.60-13.04L625.60-13.04L625.60 0L622.88 0L622.88-3.28Q621.92-1.64 620.06-0.72Q618.20 0.20 615.64 0.20L615.64 0.20Q612.12 0.20 610.04-1.48Q607.96-3.16 607.96-5.92L607.96-5.92Q607.96-8.60 609.90-10.24Q611.84-11.88 616.08-11.88L616.08-11.88L622.76-11.88L622.76-13.16Q622.76-15.88 621.24-17.30Q619.72-18.72 616.80-18.72L616.80-18.72Q614.80-18.72 612.96-18.06Q611.12-17.40 609.80-16.24L609.80-16.24L608.52-18.36Q610.12-19.72 612.36-20.46Q614.60-21.20 617.08-21.20L617.08-21.20ZM616.08-2.04Q618.48-2.04 620.20-3.14Q621.92-4.24 622.76-6.32L622.76-6.32L622.76-9.76L616.16-9.76Q610.76-9.76 610.76-6L610.76-6Q610.76-4.16 612.16-3.10Q613.56-2.04 616.08-2.04L616.08-2.04Z M644.04-21.20Q648.00-21.20 650.34-18.90Q652.68-16.60 652.68-12.20L652.68-12.20L652.68 0L649.84 0L649.84-11.92Q649.84-15.20 648.20-16.92Q646.56-18.64 643.52-18.64L643.52-18.64Q640.12-18.64 638.14-16.62Q636.16-14.60 636.16-11.04L636.16-11.04L636.16 0L633.32 0L633.32-21.04L636.04-21.04L636.04-17.16Q637.20-19.08 639.26-20.14Q641.32-21.20 644.04-21.20L644.04-21.20Z M669.20 0.20Q666.08 0.20 663.62-1.16Q661.16-2.52 659.76-4.98Q658.36-7.44 658.36-10.52L658.36-10.52Q658.36-13.60 659.76-16.04Q661.16-18.48 663.62-19.84Q666.08-21.20 669.20-21.20L669.20-21.20Q671.92-21.20 674.06-20.14Q676.20-19.08 677.44-17.04L677.44-17.04L675.32-15.60Q674.28-17.16 672.68-17.94Q671.08-18.72 669.20-18.72L669.20-18.72Q666.92-18.72 665.10-17.70Q663.28-16.68 662.26-14.80Q661.24-12.92 661.24-10.52L661.24-10.52Q661.24-8.08 662.26-6.22Q663.28-4.36 665.10-3.34Q666.92-2.32 669.20-2.32L669.20-2.32Q671.08-2.32 672.68-3.08Q674.28-3.84 675.32-5.40L675.32-5.40L677.44-3.96Q676.20-1.92 674.04-0.86Q671.88 0.20 669.20 0.20L669.20 0.20Z M701.00-10.52L700.96-9.64L683.36-9.64Q683.60-6.36 685.88-4.34Q688.16-2.32 691.64-2.32L691.64-2.32Q693.60-2.32 695.24-3.02Q696.88-3.72 698.08-5.08L698.08-5.08L699.68-3.24Q698.28-1.56 696.18-0.68Q694.08 0.20 691.56 0.20L691.56 0.20Q688.32 0.20 685.82-1.18Q683.32-2.56 681.92-5Q680.52-7.44 680.52-10.52L680.52-10.52Q680.52-13.60 681.86-16.04Q683.20-18.48 685.54-19.84Q687.88-21.20 690.80-21.20L690.80-21.20Q693.72-21.20 696.04-19.84Q698.36-18.48 699.68-16.06Q701.00-13.64 701.00-10.52L701.00-10.52ZM690.80-18.76Q687.76-18.76 685.70-16.82Q683.64-14.88 683.36-11.76L683.36-11.76L698.28-11.76Q698.00-14.88 695.94-16.82Q693.88-18.76 690.80-18.76L690.80-18.76Z M745.56-21.04L748.16-21.04L740.20 0L737.52 0L730.88-17.24L724.24 0L721.56 0L713.64-21.04L716.36-21.04L722.96-3.16L729.72-21.04L732.16-21.04L738.88-3.16L745.56-21.04Z M760.44 0.20Q757.40 0.20 754.96-1.18Q752.52-2.56 751.12-5Q749.72-7.44 749.72-10.52L749.72-10.52Q749.72-13.60 751.12-16.04Q752.52-18.48 754.96-19.84Q757.40-21.20 760.44-21.20L760.44-21.20Q763.48-21.20 765.92-19.84Q768.36-18.48 769.74-16.04Q771.12-13.60 771.12-10.52L771.12-10.52Q771.12-7.44 769.74-5Q768.36-2.56 765.92-1.18Q763.48 0.20 760.44 0.20L760.44 0.20ZM760.44-2.32Q762.68-2.32 764.46-3.34Q766.24-4.36 767.24-6.24Q768.24-8.12 768.24-10.52L768.24-10.52Q768.24-12.92 767.24-14.80Q766.24-16.68 764.46-17.70Q762.68-18.72 760.44-18.72L760.44-18.72Q758.20-18.72 756.42-17.70Q754.64-16.68 753.62-14.80Q752.60-12.92 752.60-10.52L752.60-10.52Q752.60-8.12 753.62-6.24Q754.64-4.36 756.42-3.34Q758.20-2.32 760.44-2.32L760.44-2.32Z M779.64-16.92Q780.64-19.04 782.62-20.12Q784.60-21.20 787.52-21.20L787.52-21.20L787.52-18.44L786.84-18.48Q783.52-18.48 781.64-16.44Q779.76-14.40 779.76-10.72L779.76-10.72L779.76 0L776.92 0L776.92-21.04L779.64-21.04L779.64-16.92Z M792.64 0L792.64-29.68L795.48-29.68L795.48 0L792.64 0Z M819.76-29.68L822.60-29.68L822.60 0L819.88 0L819.88-4.16Q818.60-2.04 816.50-0.92Q814.40 0.20 811.76 0.20L811.76 0.20Q808.80 0.20 806.40-1.16Q804-2.52 802.64-4.96Q801.28-7.40 801.28-10.52L801.28-10.52Q801.28-13.64 802.64-16.08Q804-18.52 806.40-19.86Q808.80-21.20 811.76-21.20L811.76-21.20Q814.32-21.20 816.38-20.14Q818.44-19.08 819.76-17.04L819.76-17.04L819.76-29.68ZM812-2.32Q814.20-2.32 815.98-3.34Q817.76-4.36 818.78-6.24Q819.80-8.12 819.80-10.52L819.80-10.52Q819.80-12.92 818.78-14.80Q817.76-16.68 815.98-17.70Q814.20-18.72 812-18.72L812-18.72Q809.76-18.72 807.98-17.70Q806.20-16.68 805.18-14.80Q804.16-12.92 804.16-10.52L804.16-10.52Q804.16-8.12 805.18-6.24Q806.20-4.36 807.98-3.34Q809.76-2.32 812-2.32L812-2.32Z"/></g>
</svg>
</g><g opacity="1" transform="rotate(0 1664.9291 522.1296)">
<svg width="376.1417" height="32.7954" x="1664.9291" y="522.1296" version="1.1" preserveAspectRatio="none" viewBox="2.04 -28.8 337.2 29.4">
  <g transform="matrix(1 0 0 1 0 0)" class="background"><path id="id-D6z1nYkh14" d="M16.12 0L16.12 0L3.48 0Q2.72 0 2.38-0.34Q2.04-0.68 2.04-1.44L2.04-1.44L2.04-6.12Q2.04-6.88 2.38-7.22Q2.72-7.56 3.48-7.56L3.48-7.56L14.24-7.56Q14.76-7.56 15.02-7.90Q15.28-8.24 15.28-8.72L15.28-8.72Q15.28-9.40 15.02-9.72Q14.76-10.04 14.24-10.08L14.24-10.08L8.24-10.92Q5.44-11.32 3.74-12.76Q2.04-14.20 2.04-17.56L2.04-17.56L2.04-21.76Q2.04-25.16 4.24-26.98Q6.44-28.80 10.32-28.80L10.32-28.80L21.52-28.80Q22.28-28.80 22.62-28.46Q22.96-28.12 22.96-27.36L22.96-27.36L22.96-22.60Q22.96-21.84 22.62-21.50Q22.28-21.16 21.52-21.16L21.52-21.16L12.20-21.16Q11.68-21.16 11.40-20.82Q11.12-20.48 11.12-19.96L11.12-19.96Q11.12-19.44 11.40-19.08Q11.68-18.72 12.20-18.68L12.20-18.68L18.16-17.88Q20.96-17.48 22.68-16.04Q24.40-14.60 24.40-11.24L24.40-11.24L24.40-7.04Q24.40-3.64 22.18-1.82Q19.96 0 16.12 0Z M36.40 0L36.40 0L30.20 0Q29.44 0 29.10-0.34Q28.76-0.68 28.76-1.44L28.76-1.44L28.76-27.36Q28.76-28.12 29.10-28.46Q29.44-28.80 30.20-28.80L30.20-28.80L36.40-28.80Q37.16-28.80 37.50-28.46Q37.84-28.12 37.84-27.36L37.84-27.36L37.84-18.68L44.52-18.68L44.52-27.36Q44.52-28.12 44.86-28.46Q45.20-28.80 45.96-28.80L45.96-28.80L52.16-28.80Q52.92-28.80 53.26-28.46Q53.60-28.12 53.60-27.36L53.60-27.36L53.60-1.44Q53.60-0.68 53.26-0.34Q52.92 0 52.16 0L52.16 0L45.96 0Q45.20 0 44.86-0.34Q44.52-0.68 44.52-1.44L44.52-1.44L44.52-10.32L37.84-10.32L37.84-1.44Q37.84-0.68 37.50-0.34Q37.16 0 36.40 0Z M76.96 0L59.92 0Q59.16 0 58.82-0.34Q58.48-0.68 58.48-1.44L58.48-1.44L58.48-6.20Q58.48-6.96 58.82-7.30Q59.16-7.64 59.92-7.64L59.92-7.64L63.88-7.64L63.88-21.08L59.92-21.08Q59.16-21.08 58.82-21.42Q58.48-21.76 58.48-22.52L58.48-22.52L58.48-27.36Q58.48-28.12 58.82-28.46Q59.16-28.80 59.92-28.80L59.92-28.80L76.96-28.80Q77.72-28.80 78.06-28.46Q78.40-28.12 78.40-27.36L78.40-27.36L78.40-22.52Q78.40-21.76 78.06-21.42Q77.72-21.08 76.96-21.08L76.96-21.08L73.08-21.08L73.08-7.64L76.96-7.64Q77.72-7.64 78.06-7.30Q78.40-6.96 78.40-6.20L78.40-6.20L78.40-1.44Q78.40-0.68 78.06-0.34Q77.72 0 76.96 0L76.96 0Z M90.96 0L90.96 0L84.76 0Q84 0 83.66-0.34Q83.32-0.68 83.32-1.44L83.32-1.44L83.32-27.36Q83.32-28.12 83.66-28.46Q84-28.80 84.76-28.80L84.76-28.80L102.60-28.80Q103.36-28.80 103.70-28.46Q104.04-28.12 104.04-27.36L104.04-27.36L104.04-22.60Q104.04-21.84 103.70-21.50Q103.36-21.16 102.60-21.16L102.60-21.16L92.40-21.16L92.40-17L99.36-17Q100.12-17 100.46-16.66Q100.80-16.32 100.80-15.56L100.80-15.56L100.80-10.76Q100.80-10 100.46-9.66Q100.12-9.32 99.36-9.32L99.36-9.32L92.40-9.32L92.40-1.44Q92.40-0.68 92.06-0.34Q91.72 0 90.96 0Z M121.64 0L121.64 0L115.16 0Q114.40 0 114.06-0.34Q113.72-0.68 113.72-1.44L113.72-1.44L113.72-21.08L107.84-21.08Q107.08-21.08 106.74-21.42Q106.40-21.76 106.40-22.52L106.40-22.52L106.40-27.36Q106.40-28.12 106.74-28.46Q107.08-28.80 107.84-28.80L107.84-28.80L128.96-28.80Q129.72-28.80 130.06-28.46Q130.40-28.12 130.40-27.36L130.40-27.36L130.40-22.52Q130.40-21.76 130.06-21.42Q129.72-21.08 128.96-21.08L128.96-21.08L123.08-21.08L123.08-1.44Q123.08-0.68 122.74-0.34Q122.40 0 121.64 0Z M162.20 0L162.20 0L143.16 0Q142.40 0 142.06-0.34Q141.72-0.68 141.72-1.44L141.72-1.44L141.72-8.32Q141.72-10.64 142.18-12.14Q142.64-13.64 143.48-14.60Q144.32-15.56 145.48-16.12Q146.64-16.68 148-17.08L148-17.08L153.36-18.76Q154-18.92 154.22-19.24Q154.44-19.56 154.44-20.20L154.44-20.20Q154.44-20.80 154.20-21.02Q153.96-21.24 153.36-21.24L153.36-21.24L144.68-21.24Q143.92-21.24 143.58-21.58Q143.24-21.92 143.24-22.68L143.24-22.68L143.24-27.36Q143.24-28.12 143.58-28.46Q143.92-28.80 144.68-28.80L144.68-28.80L156.48-28.80Q159.88-28.80 161.70-27.10Q163.52-25.40 163.52-22.16L163.52-22.16L163.52-18.40Q163.52-15.40 161.84-13.80Q160.16-12.20 157.28-11.32L157.28-11.32L151.84-9.60Q151.24-9.44 151.02-9.24Q150.80-9.04 150.80-8.40L150.80-8.40L150.80-7.56L162.20-7.56Q162.96-7.56 163.30-7.22Q163.64-6.88 163.64-6.12L163.64-6.12L163.64-1.44Q163.64-0.68 163.30-0.34Q162.96 0 162.20 0Z M185.08 0L185.08 0L178.88 0Q178.12 0 177.78-0.34Q177.44-0.68 177.44-1.44L177.44-1.44L177.44-27.36Q177.44-28.12 177.78-28.46Q178.12-28.80 178.88-28.80L178.88-28.80L196.72-28.80Q197.48-28.80 197.82-28.46Q198.16-28.12 198.16-27.36L198.16-27.36L198.16-22.60Q198.16-21.84 197.82-21.50Q197.48-21.16 196.72-21.16L196.72-21.16L186.52-21.16L186.52-17L193.48-17Q194.24-17 194.58-16.66Q194.92-16.32 194.92-15.56L194.92-15.56L194.92-10.76Q194.92-10 194.58-9.66Q194.24-9.32 193.48-9.32L193.48-9.32L186.52-9.32L186.52-1.44Q186.52-0.68 186.18-0.34Q185.84 0 185.08 0Z M226.68-27.36L226.68-7.56Q226.68-5.72 226.14-4.22Q225.60-2.72 224.22-1.66Q222.84-0.60 220.44 0Q218.04 0.60 214.32 0.60L214.32 0.60Q210.60 0.60 208.20 0Q205.80-0.60 204.42-1.66Q203.04-2.72 202.50-4.22Q201.96-5.72 201.96-7.56L201.96-7.56L201.96-27.36Q201.96-28.12 202.30-28.46Q202.64-28.80 203.40-28.80L203.40-28.80L209.68-28.80Q210.44-28.80 210.78-28.46Q211.12-28.12 211.12-27.36L211.12-27.36L211.12-9.12Q211.12-8.32 211.72-7.78Q212.32-7.24 214.40-7.24L214.40-7.24Q216.52-7.24 217.12-7.78Q217.72-8.32 217.72-9.12L217.72-9.12L217.72-27.36Q217.72-28.12 218.06-28.46Q218.40-28.80 219.16-28.80L219.16-28.80L225.24-28.80Q226-28.80 226.34-28.46Q226.68-28.12 226.68-27.36L226.68-27.36Z M245.60 0L245.60 0L239.12 0Q238.36 0 238.02-0.34Q237.68-0.68 237.68-1.44L237.68-1.44L237.68-21.08L231.80-21.08Q231.04-21.08 230.70-21.42Q230.36-21.76 230.36-22.52L230.36-22.52L230.36-27.36Q230.36-28.12 230.70-28.46Q231.04-28.80 231.80-28.80L231.80-28.80L252.92-28.80Q253.68-28.80 254.02-28.46Q254.36-28.12 254.36-27.36L254.36-27.36L254.36-22.52Q254.36-21.76 254.02-21.42Q253.68-21.08 252.92-21.08L252.92-21.08L247.04-21.08L247.04-1.44Q247.04-0.68 246.70-0.34Q246.36 0 245.60 0Z M282.76-27.36L282.76-7.56Q282.76-5.72 282.22-4.22Q281.68-2.72 280.30-1.66Q278.92-0.60 276.52 0Q274.12 0.60 270.40 0.60L270.40 0.60Q266.68 0.60 264.28 0Q261.88-0.60 260.50-1.66Q259.12-2.72 258.58-4.22Q258.04-5.72 258.04-7.56L258.04-7.56L258.04-27.36Q258.04-28.12 258.38-28.46Q258.72-28.80 259.48-28.80L259.48-28.80L265.76-28.80Q266.52-28.80 266.86-28.46Q267.20-28.12 267.20-27.36L267.20-27.36L267.20-9.12Q267.20-8.32 267.80-7.78Q268.40-7.24 270.48-7.24L270.48-7.24Q272.60-7.24 273.20-7.78Q273.80-8.32 273.80-9.12L273.80-9.12L273.80-27.36Q273.80-28.12 274.14-28.46Q274.48-28.80 275.24-28.80L275.24-28.80L281.32-28.80Q282.08-28.80 282.42-28.46Q282.76-28.12 282.76-27.36L282.76-27.36Z M300.12-21.60L297.12-21.60L297.12-16.48L300.12-16.48Q301.16-16.48 301.52-17.02Q301.88-17.56 301.88-18.36L301.88-18.36L301.88-19.72Q301.88-20.52 301.52-21.06Q301.16-21.60 300.12-21.60L300.12-21.60ZM295.68 0L295.68 0L289.52 0Q288.76 0 288.42-0.34Q288.08-0.68 288.08-1.44L288.08-1.44L288.08-27.36Q288.08-28.12 288.42-28.46Q288.76-28.80 289.52-28.80L289.52-28.80L302.84-28.80Q307.32-28.80 309.02-26.94Q310.72-25.08 310.72-22.12L310.72-22.12L310.72-20.28Q310.72-18.60 310.22-17.42Q309.72-16.24 308.48-15.72L308.48-15.72Q310.64-15.48 311.98-13.96Q313.32-12.44 313.32-9.92L313.32-9.92L313.32-1.44Q313.32-0.68 312.98-0.34Q312.64 0 311.88 0L311.88 0L305.68 0Q304.92 0 304.58-0.34Q304.24-0.68 304.24-1.44L304.24-1.44L304.24-7.56Q304.24-8.44 303.90-8.86Q303.56-9.28 302.72-9.28L302.72-9.28L297.12-9.28L297.12-1.44Q297.12-0.68 296.78-0.34Q296.44 0 295.68 0Z M337.80 0L337.80 0L319.24 0Q318.48 0 318.14-0.34Q317.80-0.68 317.80-1.44L317.80-1.44L317.80-27.36Q317.80-28.12 318.14-28.46Q318.48-28.80 319.24-28.80L319.24-28.80L337.80-28.80Q338.56-28.80 338.90-28.46Q339.24-28.12 339.24-27.36L339.24-27.36L339.24-22.68Q339.24-21.92 338.90-21.58Q338.56-21.24 337.80-21.24L337.80-21.24L326.76-21.24L326.76-18.16L334.56-18.16Q335.32-18.16 335.66-17.82Q336.00-17.48 336.00-16.72L336.00-16.72L336.00-12.44Q336.00-11.68 335.66-11.34Q335.32-11 334.56-11L334.56-11L326.76-11L326.76-7.56L337.80-7.56Q338.56-7.56 338.90-7.22Q339.24-6.88 339.24-6.12L339.24-6.12L339.24-1.44Q339.24-0.68 338.90-0.34Q338.56 0 337.80 0Z"/></g>
</svg>
</g><g opacity="1" transform="rotate(0 1795 390.0668)">
<svg width="116" height="116" x="1795" y="390.0668" version="1.1" preserveAspectRatio="none" viewBox="20.197994232177734 20.81100082397461 159.04000854492188 159.04000854492188">
  <g transform="matrix(1 0 0 1 0 0)" ><g><path d="M99.718 20.811c-32.299 0-61.151 19.283-73.504 49.127a78.968 78.968 0 0 0-3.467 10.349 79.739 79.739 0 0 0-2.549 20.044c0 43.848 35.673 79.52 79.52 79.52s79.52-35.672 79.52-79.52c0-43.847-35.673-79.52-79.52-79.52zm34.719 38.313c2.03 0 3.681 1.651 3.681 3.681s-1.651 3.681-3.681 3.681c-2.029 0-3.68-1.651-3.68-3.681s1.651-3.681 3.68-3.681zm-60.365 97.471c-2.03 0-3.681-1.65-3.681-3.68s1.651-3.682 3.681-3.682c2.029 0 3.68 1.652 3.68 3.682s-1.651 3.68-3.68 3.68zm75.764.777l-22.751-.014v-11.142c3.122-.794 5.449-3.605 5.449-6.971 0-3.979-3.237-7.217-7.216-7.217s-7.216 3.238-7.216 7.217c0 3.366 2.326 6.177 5.449 6.971v11.14c-13.07-.006-16.269-.004-17.164.025v-.009c-1.484 0-2.591-.413-3.386-1.262-1.718-1.837-1.521-5.123-1.514-5.28l-.001-14.419c-.08-2.72-.956-4.809-2.605-6.207-2.246-1.907-5.057-1.764-5.764-1.693H74.494c-.78-3.143-3.603-5.488-6.984-5.488-3.979 0-7.216 3.237-7.216 7.216s3.237 7.215 7.216 7.215c3.351 0 6.151-2.307 6.959-5.408h18.747l.223-.014c.02-.005 1.904-.211 3.173.882.84.725 1.291 1.937 1.34 3.549l.005 14.238c-.015.195-.322 4.826 2.444 7.806 1.48 1.593 3.495 2.401 5.986 2.401l.226-.005c.734-.007 4.294-.021 18.263-.01l20.653.013c-12.746 9.664-28.617 15.411-45.81 15.411a75.668 75.668 0 0 1-23.879-3.865v-12.564c3.122-.794 5.448-3.605 5.448-6.971 0-3.979-3.237-7.217-7.216-7.217s-7.216 3.238-7.216 7.217c0 3.366 2.326 6.177 5.449 6.971v11.292c-11.637-4.518-21.887-11.82-29.939-21.089l-.009-45.897c-.003-.04-.06-.967.698-1.768.939-.994 2.789-1.504 5.394-1.45l27.163-.002c.386.013 3.771.101 6.085-2.216 1.401-1.402 2.056-3.309 1.948-5.587v-7.535c3.127-.79 5.458-3.605 5.458-6.974 0-3.979-3.237-7.216-7.216-7.216s-7.216 3.237-7.216 7.216c0 3.362 2.321 6.171 5.439 6.969l.001 7.623c.062 1.336-.233 2.316-.904 2.995-1.238 1.254-3.424 1.194-3.515 1.193H48.479c-3.701-.045-6.431.829-8.084 2.654-1.607 1.773-1.603 3.773-1.565 4.339v41.307c-9.478-12.677-15.096-28.398-15.096-45.408 0-6.263.781-12.48 2.287-18.501h28.541c.117.009.318.019.582.019 1.239 0 3.874-.236 5.816-2.06 1.579-1.482 2.323-3.594 2.214-6.277l-.037.001c.161-1.622.142-5.616.059-16.507 3.146-.778 5.494-3.603 5.494-6.985 0-3.979-3.237-7.216-7.216-7.216s-7.216 3.237-7.216 7.216c0 3.349 2.303 6.146 5.401 6.957.04 6.006.07 13.665.023 15.836l-.072.072.032.771c.065 1.604-.301 2.796-1.089 3.545-1.374 1.308-3.719 1.107-3.736 1.105l-27.793-.009c.718-2.372 1.512-4.724 2.456-7.006 9.032-21.819 27.296-37.718 49.199-43.99l.002 22.777c-.011.212-.234 5.234 2.928 8.533 1.776 1.853 4.171 2.767 7.187 2.751h16.493l.179-.009c.058-.002 1.449-.107 2.638 1.062 1.515 1.488 2.171 4.444 1.895 8.666v33.25c-3.089.816-5.384 3.609-5.384 6.951 0 3.979 3.237 7.217 7.216 7.217s7.216-3.238 7.216-7.217c0-3.389-2.357-6.22-5.513-6.991l-.003-33.093c.352-5.308-.67-9.141-3.038-11.392-2.167-2.061-4.646-2.027-5.283-1.979H88.781c-2.052-.016-3.517-.52-4.605-1.649-2.105-2.181-1.964-5.886-1.961-6.009v-10.9h24.899c.794 3.122 3.606 5.449 6.971 5.449 3.979 0 7.216-3.237 7.216-7.216s-3.237-7.216-7.216-7.216c-3.366 0-6.178 2.326-6.971 5.448H82.215v-9.362a76.511 76.511 0 0 1 17.504-2.029c11.799 0 22.978 2.704 32.951 7.524v23.964c-3.122.794-5.448 3.606-5.448 6.971 0 3.979 3.237 7.216 7.216 7.216s7.216-3.237 7.216-7.216c0-3.366-2.326-6.178-5.449-6.971V33.702a76.333 76.333 0 0 1 14.146 10.034l.003 31.927c-.009.154-.175 3.799 2.208 6.446 1.443 1.604 3.451 2.481 5.965 2.608l.173.002.066-.002c.407-.016 1.674-.042 2.476.761.42.42.68 1.061.81 1.873-3.07.83-5.347 3.611-5.347 6.94 0 3.979 3.237 7.216 7.216 7.216s7.216-3.237 7.216-7.216c0-3.395-2.364-6.23-5.527-6.996-.194-1.801-.809-3.256-1.867-4.315-1.243-1.244-2.941-1.859-5.038-1.794-4.792-.243-4.858-4.494-4.82-5.429V47.113c13.481 13.719 21.817 32.51 21.817 53.218a75.539 75.539 0 0 1-5.413 28.11l-19.841.003c-1.596.119-6.178.003-8.103-1.795-.566-.528-.83-1.153-.83-1.968V93.193c3.122-.794 5.449-3.606 5.449-6.971 0-3.979-3.237-7.216-7.216-7.216s-7.216 3.237-7.216 7.216c0 3.366 2.326 6.178 5.449 6.971v31.488c0 1.788.678 3.364 1.958 4.557 2.631 2.451 7.209 2.776 9.417 2.776a17.5 17.5 0 0 0 1.216-.038h18.2a76.349 76.349 0 0 1-18.936 25.396zm-24.518-14.446a3.684 3.684 0 0 1-3.681-3.68c0-2.03 1.651-3.682 3.681-3.682s3.681 1.652 3.681 3.682a3.685 3.685 0 0 1-3.681 3.68zm-54.127-12.688c0 2.03-1.651 3.68-3.681 3.68a3.684 3.684 0 0 1-3.681-3.68c0-2.03 1.651-3.68 3.681-3.68 2.03 0 3.681 1.65 3.681 3.68zm7.014-51.579a3.685 3.685 0 0 1 3.68-3.681 3.685 3.685 0 0 1 3.681 3.681 3.685 3.685 0 0 1-3.681 3.681 3.685 3.685 0 0 1-3.68-3.681zM57.792 50.02a3.685 3.685 0 0 1 3.68-3.681c2.03 0 3.681 1.651 3.681 3.681s-1.651 3.681-3.681 3.681a3.685 3.685 0 0 1-3.68-3.681zm57.723 61.261a3.686 3.686 0 0 1-3.681 3.682c-2.029 0-3.68-1.652-3.68-3.682s1.651-3.68 3.68-3.68c2.03 0 3.681 1.65 3.681 3.68zm-5.111-73.776a3.685 3.685 0 0 1 3.681-3.68 3.685 3.685 0 0 1 3.681 3.68 3.685 3.685 0 0 1-3.681 3.681 3.685 3.685 0 0 1-3.681-3.681zm57.199 56.786a3.685 3.685 0 0 1-3.681 3.68 3.684 3.684 0 0 1-3.68-3.68 3.685 3.685 0 0 1 3.68-3.681 3.685 3.685 0 0 1 3.681 3.681zm-27.854-4.388c-2.03 0-3.681-1.651-3.681-3.681s1.651-3.681 3.681-3.681c2.03 0 3.681 1.651 3.681 3.681s-1.651 3.681-3.681 3.681z" data-color="1" class="aU0RBAjHQvcolors-0"></path></g></g>
</svg>
</g></svg>